<?xml version="1.0" standalone="no"?><!DOCTYPE svg PUBLIC "-//W3C//DTD SVG 1.1//EN" "http://www.w3.org/Graphics/SVG/1.1/DTD/svg11.dtd"><svg t="1615087635153" class="icon" viewBox="0 0 1024 1024" version="1.1" xmlns="http://www.w3.org/2000/svg" p-id="4282" xmlns:xlink="http://www.w3.org/1999/xlink" width="200" height="200"><defs><style type="text/css"></style></defs><path d="M725.333333 170.666667h-4.266666c-8.533333-25.6-32-42.666667-59.733334-42.666667H362.666667c-27.733333 0-51.2 17.066667-59.733334 42.666667H298.666667c-83.2 0-149.333333 66.133333-149.333334 149.333333v426.666667c0 83.2 66.133333 149.333333 149.333334 149.333333h426.666666c83.2 0 149.333333-66.133333 149.333334-149.333333V320c0-83.2-66.133333-149.333333-149.333334-149.333333zM341.333333 192c0-12.8 8.533333-21.333333 21.333334-21.333333h298.666666c12.8 0 21.333333 8.533333 21.333334 21.333333v42.666667c0 12.8-8.533333 21.333333-21.333334 21.333333H362.666667c-12.8 0-21.333333-8.533333-21.333334-21.333333V192z m490.666667 554.666667c0 59.733333-46.933333 106.666667-106.666667 106.666666H298.666667c-59.733333 0-106.666667-46.933333-106.666667-106.666666V320c0-59.733333 46.933333-106.666667 106.666667-106.666667v21.333334c0 36.266667 27.733333 64 64 64h298.666666c36.266667 0 64-27.733333 64-64v-21.333334c59.733333 0 106.666667 46.933333 106.666667 106.666667v426.666667z m-134.4-334.933334c8.533333 8.533333 8.533333 21.333333 0 29.866667L471.466667 667.733333c0 2.133333-2.133333 4.266667-4.266667 6.4-8.533333 8.533333-21.333333 8.533333-29.866667 0L337.066667 576c-8.533333-8.533333-8.533333-21.333333 0-29.866667 8.533333-8.533333 21.333333-8.533333 29.866666 0l83.2 83.2 215.466667-215.466666c8.533333-8.533333 23.466667-8.533333 32-2.133334z" fill="#222222" p-id="4283"></path></svg>