<?xml version="1.0" standalone="no"?><!DOCTYPE svg PUBLIC "-//W3C//DTD SVG 1.1//EN" "http://www.w3.org/Graphics/SVG/1.1/DTD/svg11.dtd"><svg t="1615087621005" class="icon" viewBox="0 0 1024 1024" version="1.1" xmlns="http://www.w3.org/2000/svg" p-id="3712" xmlns:xlink="http://www.w3.org/1999/xlink" width="200" height="200"><defs><style type="text/css"></style></defs><path d="M746.666667 106.666667H277.333333c-36.266667 0-64 27.733333-64 64v682.666666c0 36.266667 27.733333 64 64 64h469.333334c36.266667 0 64-27.733333 64-64V170.666667c0-36.266667-27.733333-64-64-64zM277.333333 149.333333h469.333334c12.8 0 21.333333 8.533333 21.333333 21.333334v533.333333H256V170.666667c0-12.8 8.533333-21.333333 21.333333-21.333334z m469.333334 725.333334H277.333333c-12.8 0-21.333333-8.533333-21.333333-21.333334v-106.666666h512v106.666666c0 12.8-8.533333 21.333333-21.333333 21.333334z" p-id="3713"></path><path d="M405.333333 256h213.333334c10.666667 0 21.333333-8.533333 21.333333-21.333333 0-10.666667-10.666667-21.333333-21.333333-21.333334H405.333333c-10.666667 0-21.333333 10.666667-21.333333 21.333334s10.666667 21.333333 21.333333 21.333333zM533.333333 789.333333h-42.666666c-10.666667 0-21.333333 10.666667-21.333334 21.333334s10.666667 21.333333 21.333334 21.333333h42.666666c10.666667 0 21.333333-10.666667 21.333334-21.333333s-10.666667-21.333333-21.333334-21.333334z" p-id="3714"></path></svg>